<svg width="20" height="20" viewBox="0 0 20 20" fill="none" xmlns="http://www.w3.org/2000/svg">
<path d="M18.8 10.2084C18.8 9.55837 18.7417 8.93337 18.6333 8.33337H10V11.8792H14.9333C14.7208 13.025 14.075 13.9959 13.1042 14.6459V16.9459H16.0667C17.8 15.35 18.8 13 18.8 10.2084Z" fill="#4285F4"/>
<path d="M9.99999 19.1667C12.475 19.1667 14.55 18.3459 16.0667 16.9459L13.1042 14.6459C12.2833 15.1959 11.2333 15.5209 9.99999 15.5209C7.61249 15.5209 5.59165 13.9084 4.87082 11.7417H1.80832V14.1167C3.31665 17.1125 6.41665 19.1667 9.99999 19.1667Z" fill="#34A853"/>
<path d="M4.87084 11.7416C4.68751 11.1916 4.58334 10.6041 4.58334 9.99997C4.58334 9.3958 4.68751 8.8083 4.87084 8.2583V5.8833H1.80834C1.16668 7.16068 0.832778 8.57048 0.833344 9.99997C0.833344 11.4791 1.18751 12.8791 1.80834 14.1166L4.87084 11.7416Z" fill="#FBBC05"/>
<path d="M9.99999 4.47921C11.3458 4.47921 12.5542 4.94171 13.5042 5.85004L16.1333 3.22087C14.5458 1.74171 12.4708 0.833374 9.99999 0.833374C6.41665 0.833374 3.31665 2.88754 1.80832 5.88337L4.87082 8.25837C5.59165 6.09171 7.61249 4.47921 9.99999 4.47921Z" fill="#EA4335"/>
</svg>
