<svg width="138" height="138" viewBox="0 0 138 138" fill="none" xmlns="http://www.w3.org/2000/svg">
<path d="M69.0002 137.182C106.656 137.182 137.182 106.656 137.182 68.9999C137.182 31.3442 106.656 0.818115 69.0002 0.818115C31.3444 0.818115 0.818359 31.3442 0.818359 68.9999C0.818359 106.656 31.3444 137.182 69.0002 137.182Z" fill="#DEF4EC"/>
<path d="M127.636 24V103.786C121.809 113.608 113.608 121.809 103.786 127.636H34.241C24.4091 121.813 16.1985 113.612 10.3638 103.786V24H127.636Z" fill="#287758"/>
<path d="M48.5454 10.3635H122.182C123.628 10.3635 125.016 10.9382 126.039 11.9611C127.062 12.9841 127.636 14.3714 127.636 15.8181V23.9999H48.5454V10.3635Z" fill="#194A37"/>
<path d="M56.7274 23.9999H10.3638V15.8181C10.3638 14.3714 10.9384 12.9841 11.9614 11.9611C12.9843 10.9382 14.3717 10.3635 15.8183 10.3635H48.5456C49.7206 10.3609 50.865 10.7378 51.8085 11.4381C52.752 12.1383 53.4441 13.1245 53.782 14.2499L56.7274 23.9999Z" fill="#287758"/>
<path d="M47.1819 19.9089C48.6881 19.9089 49.9091 18.6878 49.9091 17.1816C49.9091 15.6754 48.6881 14.4543 47.1819 14.4543C45.6756 14.4543 44.4546 15.6754 44.4546 17.1816C44.4546 18.6878 45.6756 19.9089 47.1819 19.9089Z" fill="white"/>
<path d="M120.818 19.9089C122.324 19.9089 123.545 18.6878 123.545 17.1816C123.545 15.6754 122.324 14.4543 120.818 14.4543C119.312 14.4543 118.091 15.6754 118.091 17.1816C118.091 18.6878 119.312 19.9089 120.818 19.9089Z" fill="white"/>
<path d="M111.273 19.9089C112.779 19.9089 114 18.6878 114 17.1816C114 15.6754 112.779 14.4543 111.273 14.4543C109.766 14.4543 108.545 15.6754 108.545 17.1816C108.545 18.6878 109.766 19.9089 111.273 19.9089Z" fill="white"/>
<path d="M101.727 19.9089C103.234 19.9089 104.455 18.6878 104.455 17.1816C104.455 15.6754 103.234 14.4543 101.727 14.4543C100.221 14.4543 99 15.6754 99 17.1816C99 18.6878 100.221 19.9089 101.727 19.9089Z" fill="white"/>
<path d="M102.491 81.8727L72.491 32.7818C72.1256 32.1837 71.6127 31.6895 71.0014 31.3467C70.3901 31.0038 69.701 30.8237 69.0001 30.8237C68.2992 30.8237 67.6101 31.0038 66.9988 31.3467C66.3875 31.6895 65.8746 32.1837 65.5092 32.7818L35.5092 81.8727C35.1317 82.4927 34.926 83.202 34.9132 83.9278C34.9004 84.6535 35.081 85.3696 35.4363 86.0026C35.7916 86.6356 36.309 87.1626 36.9353 87.5295C37.5616 87.8965 38.2742 88.0903 39.0001 88.0909H99.0001C99.726 88.0903 100.439 87.8965 101.065 87.5295C101.691 87.1626 102.209 86.6356 102.564 86.0026C102.919 85.3696 103.1 84.6535 103.087 83.9278C103.074 83.202 102.868 82.4927 102.491 81.8727Z" fill="#FF4D69"/>
<path d="M40.3638 98.9999C40.7255 98.9999 41.0723 98.8563 41.3281 98.6005C41.5838 98.3448 41.7275 97.998 41.7275 97.6363C41.7275 97.2746 41.5838 96.9278 41.3281 96.6721C41.0723 96.4163 40.7255 96.2727 40.3638 96.2727H32.182C31.8203 96.2727 31.4735 96.4163 31.2178 96.6721C30.962 96.9278 30.8184 97.2746 30.8184 97.6363V111.273C30.8184 111.634 30.962 111.981 31.2178 112.237C31.4735 112.493 31.8203 112.636 32.182 112.636H40.3638C40.7255 112.636 41.0723 112.493 41.3281 112.237C41.5838 111.981 41.7275 111.634 41.7275 111.273C41.7275 110.911 41.5838 110.564 41.3281 110.308C41.0723 110.053 40.7255 109.909 40.3638 109.909H33.5456V105.818H39.0002C39.3618 105.818 39.7087 105.674 39.9644 105.419C40.2201 105.163 40.3638 104.816 40.3638 104.454C40.3638 104.093 40.2201 103.746 39.9644 103.49C39.7087 103.235 39.3618 103.091 39.0002 103.091H33.5456V98.9999H40.3638ZM74.4547 101.727C74.4547 100.281 73.88 98.8932 72.8571 97.8703C71.8342 96.8473 70.4468 96.2727 69.0002 96.2727H64.9093C64.5476 96.2727 64.2008 96.4163 63.945 96.6721C63.6893 96.9278 63.5456 97.2746 63.5456 97.6363V111.273C63.5456 111.634 63.6893 111.981 63.945 112.237C64.2008 112.493 64.5476 112.636 64.9093 112.636C65.2709 112.636 65.6178 112.493 65.8735 112.237C66.1292 111.981 66.2729 111.634 66.2729 111.273V107.182H68.3184L72.0002 112.091C72.1076 112.234 72.2422 112.355 72.3963 112.446C72.5504 112.537 72.721 112.597 72.8982 112.623C73.0755 112.648 73.256 112.638 73.4295 112.594C73.603 112.549 73.766 112.471 73.9093 112.364C74.0525 112.256 74.1732 112.122 74.2645 111.967C74.3557 111.813 74.4157 111.643 74.441 111.466C74.4663 111.288 74.4565 111.108 74.4121 110.934C74.3676 110.761 74.2894 110.598 74.182 110.454L71.3184 106.636C72.2517 106.198 73.0417 105.504 73.5968 104.636C74.1519 103.767 74.4494 102.758 74.4547 101.727ZM69.0002 104.454H66.2729V98.9999H69.0002C69.7235 98.9999 70.4172 99.2873 70.9287 99.7987C71.4401 100.31 71.7275 101.004 71.7275 101.727C71.7275 102.451 71.4401 103.144 70.9287 103.656C70.4172 104.167 69.7235 104.454 69.0002 104.454ZM58.0911 101.727C58.0911 100.281 57.5164 98.8932 56.4935 97.8703C55.4706 96.8473 54.0832 96.2727 52.6365 96.2727H48.5456C48.184 96.2727 47.8371 96.4163 47.5814 96.6721C47.3257 96.9278 47.182 97.2746 47.182 97.6363V111.273C47.182 111.634 47.3257 111.981 47.5814 112.237C47.8371 112.493 48.184 112.636 48.5456 112.636C48.9073 112.636 49.2541 112.493 49.5099 112.237C49.7656 111.981 49.9093 111.634 49.9093 111.273V107.182H51.9547L55.6365 112.091C55.8535 112.38 56.1766 112.571 56.5346 112.623C56.8926 112.674 57.2563 112.581 57.5456 112.364C57.835 112.147 58.0262 111.824 58.0774 111.466C58.1285 111.107 58.0354 110.744 57.8184 110.454L54.9547 106.636C55.888 106.198 56.678 105.504 57.2331 104.636C57.7882 103.767 58.0857 102.758 58.0911 101.727ZM52.6365 104.454H49.9093V98.9999H52.6365C53.3599 98.9999 54.0536 99.2873 54.565 99.7987C55.0765 100.31 55.3638 101.004 55.3638 101.727C55.3638 102.451 55.0765 103.144 54.565 103.656C54.0536 104.167 53.3599 104.454 52.6365 104.454ZM104.046 106.636C105.152 106.1 106.046 105.206 106.58 104.099C107.115 102.992 107.26 101.736 106.992 100.536C106.723 99.3362 106.057 98.2621 105.102 97.4882C104.146 96.7142 102.957 96.2859 101.727 96.2727H97.6365C97.2749 96.2727 96.928 96.4163 96.6723 96.6721C96.4166 96.9278 96.2729 97.2746 96.2729 97.6363V111.273C96.2729 111.634 96.4166 111.981 96.6723 112.237C96.928 112.493 97.2749 112.636 97.6365 112.636C97.9982 112.636 98.345 112.493 98.6008 112.237C98.8565 111.981 99.0002 111.634 99.0002 111.273V107.182H101.046L104.727 112.091C104.854 112.26 105.019 112.398 105.209 112.492C105.398 112.587 105.607 112.636 105.818 112.636C106.072 112.636 106.32 112.566 106.535 112.433C106.751 112.3 106.925 112.109 107.038 111.882C107.151 111.656 107.199 111.402 107.176 111.15C107.154 110.898 107.061 110.657 106.909 110.454L104.046 106.636ZM99.0002 98.9999H101.727C102.451 98.9999 103.144 99.2873 103.656 99.7987C104.167 100.31 104.455 101.004 104.455 101.727C104.455 102.451 104.167 103.144 103.656 103.656C103.144 104.167 102.451 104.454 101.727 104.454H99.0002V98.9999ZM85.3638 96.2727C83.9172 96.2727 82.5298 96.8473 81.5069 97.8703C80.4839 98.8932 79.9093 100.281 79.9093 101.727V107.182C79.9093 108.628 80.4839 110.016 81.5069 111.039C82.5298 112.062 83.9172 112.636 85.3638 112.636C86.8105 112.636 88.1978 112.062 89.2208 111.039C90.2437 110.016 90.8184 108.628 90.8184 107.182V101.727C90.8184 100.281 90.2437 98.8932 89.2208 97.8703C88.1978 96.8473 86.8105 96.2727 85.3638 96.2727ZM88.0911 107.182C88.0911 107.905 87.8038 108.599 87.2923 109.11C86.7808 109.622 86.0871 109.909 85.3638 109.909C84.6405 109.909 83.9468 109.622 83.4353 109.11C82.9239 108.599 82.6365 107.905 82.6365 107.182V101.727C82.6365 101.004 82.9239 100.31 83.4353 99.7987C83.9468 99.2873 84.6405 98.9999 85.3638 98.9999C86.0871 98.9999 86.7808 99.2873 87.2923 99.7987C87.8038 100.31 88.0911 101.004 88.0911 101.727V107.182ZM69.0002 67.6363C67.9152 67.6363 66.8747 67.2053 66.1075 66.4381C65.3403 65.6709 64.9093 64.6304 64.9093 63.5454V49.909C64.9093 48.824 65.3403 47.7835 66.1075 47.0163C66.8747 46.2491 67.9152 45.8181 69.0002 45.8181C70.0852 45.8181 71.1257 46.2491 71.8929 47.0163C72.6601 47.7835 73.0911 48.824 73.0911 49.909V63.5454C73.0911 64.6304 72.6601 65.6709 71.8929 66.4381C71.1257 67.2053 70.0852 67.6363 69.0002 67.6363Z" fill="white"/>
<path d="M69.0001 81.2726C71.2594 81.2726 73.091 79.4411 73.091 77.1817C73.091 74.9224 71.2594 73.0908 69.0001 73.0908C66.7407 73.0908 64.9092 74.9224 64.9092 77.1817C64.9092 79.4411 66.7407 81.2726 69.0001 81.2726Z" fill="white"/>
</svg>
