<svg width="138" height="138" viewBox="0 0 138 138" fill="none" xmlns="http://www.w3.org/2000/svg">
<path d="M69 137.182C106.656 137.182 137.182 106.656 137.182 69.0002C137.182 31.3444 106.656 0.818359 69 0.818359C31.3442 0.818359 0.818176 31.3444 0.818176 69.0002C0.818176 106.656 31.3442 137.182 69 137.182Z" fill="#DEF4EC"/>
<path d="M111.273 33.5458V116.728H26.7271V22.6367C26.7271 21.19 27.3017 19.8027 28.3247 18.7797C29.3476 17.7568 30.735 17.1821 32.1816 17.1821H94.9089L111.273 33.5458Z" fill="white"/>
<path d="M123.545 77.1819V109.909C117.195 118.377 108.959 125.25 99.4918 129.984C90.0244 134.717 79.5849 137.182 69 137.182C58.4151 137.182 47.9756 134.717 38.5081 129.984C29.0407 125.25 20.8055 118.377 14.4545 109.909V77.1819C14.4545 76.4585 14.7419 75.7649 15.2533 75.2534C15.7648 74.7419 16.4585 74.4546 17.1818 74.4546H120.818C121.541 74.4546 122.235 74.7419 122.747 75.2534C123.258 75.7649 123.545 76.4585 123.545 77.1819Z" fill="#287758"/>
<path d="M82.6364 94.9094H55.3637C54.2787 94.9094 53.2382 94.4784 52.471 93.7112C51.7038 92.944 51.2728 91.9034 51.2728 90.8184C51.2728 89.7335 51.7038 88.6929 52.471 87.9257C53.2382 87.1585 54.2787 86.7275 55.3637 86.7275H82.6364C83.7214 86.7275 84.7619 87.1585 85.5291 87.9257C86.2963 88.6929 86.7273 89.7335 86.7273 90.8184C86.7273 91.9034 86.2963 92.944 85.5291 93.7112C84.7619 94.4784 83.7214 94.9094 82.6364 94.9094Z" fill="#DCDCDC"/>
<path d="M111.272 33.5458H98.9996C97.9146 33.5458 96.8741 33.1148 96.1069 32.3476C95.3397 31.5804 94.9087 30.5398 94.9087 29.4549V17.1821L111.272 33.5458Z" fill="#525252"/>
<path d="M55.3637 28.091H36.2728C35.9111 28.091 35.5642 27.9474 35.3085 27.6916C35.0528 27.4359 34.9091 27.0891 34.9091 26.7274C34.9091 26.3657 35.0528 26.0189 35.3085 25.7632C35.5642 25.5074 35.9111 25.3638 36.2728 25.3638H55.3637C55.7253 25.3638 56.0722 25.5074 56.3279 25.7632C56.5836 26.0189 56.7273 26.3657 56.7273 26.7274C56.7273 27.0891 56.5836 27.4359 56.3279 27.6916C56.0722 27.9474 55.7253 28.091 55.3637 28.091ZM71.7273 36.2729H36.2728C35.9111 36.2729 35.5642 36.1292 35.3085 35.8735C35.0528 35.6177 34.9091 35.2709 34.9091 34.9092C34.9091 34.5476 35.0528 34.2007 35.3085 33.945C35.5642 33.6893 35.9111 33.5456 36.2728 33.5456H71.7273C72.089 33.5456 72.4358 33.6893 72.6915 33.945C72.9473 34.2007 73.0909 34.5476 73.0909 34.9092C73.0909 35.2709 72.9473 35.6177 72.6915 35.8735C72.4358 36.1292 72.089 36.2729 71.7273 36.2729ZM101.727 44.4547H36.2728C35.9111 44.4547 35.5642 44.311 35.3085 44.0553C35.0528 43.7995 34.9091 43.4527 34.9091 43.091C34.9091 42.7294 35.0528 42.3825 35.3085 42.1268C35.5642 41.8711 35.9111 41.7274 36.2728 41.7274H101.727C102.089 41.7274 102.436 41.8711 102.692 42.1268C102.947 42.3825 103.091 42.7294 103.091 43.091C103.091 43.4527 102.947 43.7995 102.692 44.0553C102.436 44.311 102.089 44.4547 101.727 44.4547ZM101.727 52.6365H36.2728C35.9111 52.6365 35.5642 52.4928 35.3085 52.2371C35.0528 51.9814 34.9091 51.6345 34.9091 51.2729C34.9091 50.9112 35.0528 50.5644 35.3085 50.3086C35.5642 50.0529 35.9111 49.9092 36.2728 49.9092H101.727C102.089 49.9092 102.436 50.0529 102.692 50.3086C102.947 50.5644 103.091 50.9112 103.091 51.2729C103.091 51.6345 102.947 51.9814 102.692 52.2371C102.436 52.4928 102.089 52.6365 101.727 52.6365ZM101.727 60.8183H36.2728C35.9111 60.8183 35.5642 60.6746 35.3085 60.4189C35.0528 60.1632 34.9091 59.8163 34.9091 59.4547C34.9091 59.093 35.0528 58.7462 35.3085 58.4904C35.5642 58.2347 35.9111 58.091 36.2728 58.091H101.727C102.089 58.091 102.436 58.2347 102.692 58.4904C102.947 58.7462 103.091 59.093 103.091 59.4547C103.091 59.8163 102.947 60.1632 102.692 60.4189C102.436 60.6746 102.089 60.8183 101.727 60.8183ZM101.727 69.0001H36.2728C35.9111 69.0001 35.5642 68.8565 35.3085 68.6007C35.0528 68.345 34.9091 67.9982 34.9091 67.6365C34.9091 67.2748 35.0528 66.928 35.3085 66.6723C35.5642 66.4165 35.9111 66.2729 36.2728 66.2729H101.727C102.089 66.2729 102.436 66.4165 102.692 66.6723C102.947 66.928 103.091 67.2748 103.091 67.6365C103.091 67.9982 102.947 68.345 102.692 68.6007C102.436 68.8565 102.089 69.0001 101.727 69.0001Z" fill="#DCDCDC"/>
<path d="M81.2727 111.273H56.7273C55.221 111.273 54 112.494 54 114V124.909C54 126.416 55.221 127.637 56.7273 127.637H81.2727C82.779 127.637 84 126.416 84 124.909V114C84 112.494 82.779 111.273 81.2727 111.273Z" fill="#DEF4EC"/>
<path d="M78.5455 118.091H59.4546C59.0929 118.091 58.7461 117.947 58.4903 117.692C58.2346 117.436 58.0909 117.089 58.0909 116.727C58.0909 116.366 58.2346 116.019 58.4903 115.763C58.7461 115.507 59.0929 115.364 59.4546 115.364H78.5455C78.9071 115.364 79.254 115.507 79.5097 115.763C79.7655 116.019 79.9091 116.366 79.9091 116.727C79.9091 117.089 79.7655 117.436 79.5097 117.692C79.254 117.947 78.9071 118.091 78.5455 118.091ZM78.5455 123.546H59.4546C59.0929 123.546 58.7461 123.402 58.4903 123.146C58.2346 122.89 58.0909 122.544 58.0909 122.182C58.0909 121.82 58.2346 121.473 58.4903 121.218C58.7461 120.962 59.0929 120.818 59.4546 120.818H78.5455C78.9071 120.818 79.254 120.962 79.5097 121.218C79.7655 121.473 79.9091 121.82 79.9091 122.182C79.9091 122.544 79.7655 122.89 79.5097 123.146C79.254 123.402 78.9071 123.546 78.5455 123.546Z" fill="#287758"/>
</svg>
