<svg width="150" height="150" viewBox="0 0 150 150" fill="none" xmlns="http://www.w3.org/2000/svg">
<path d="M75.0001 148.637C112.656 148.637 143.182 118.111 143.182 80.4548C143.182 42.799 112.656 12.2729 75.0001 12.2729C37.3443 12.2729 6.81824 42.799 6.81824 80.4548C6.81824 118.111 37.3443 148.637 75.0001 148.637Z" fill="#DEF4EC"/>
<path d="M85.9091 95.4546H64.0909C62.5847 95.4546 61.3636 96.6756 61.3636 98.1819V106.364C61.3636 107.87 62.5847 109.091 64.0909 109.091H85.9091C87.4153 109.091 88.6364 107.87 88.6364 106.364V98.1819C88.6364 96.6756 87.4153 95.4546 85.9091 95.4546Z" fill="#194A37"/>
<path d="M75 99.5456C102.112 99.5456 124.091 77.5668 124.091 50.4547C124.091 23.3425 102.112 1.36377 75 1.36377C47.8878 1.36377 25.9091 23.3425 25.9091 50.4547C25.9091 77.5668 47.8878 99.5456 75 99.5456Z" fill="#287758"/>
<path d="M75.0001 88.6366C96.0873 88.6366 113.182 71.542 113.182 50.4548C113.182 29.3675 96.0873 12.2729 75.0001 12.2729C53.9128 12.2729 36.8182 29.3675 36.8182 50.4548C36.8182 71.542 53.9128 88.6366 75.0001 88.6366Z" fill="white"/>
<path d="M81.8182 109.091H68.1819V117.273H81.8182V109.091Z" fill="#8ED9BC"/>
<path d="M85.9091 118.636V147.764C78.6826 148.923 71.3175 148.923 64.0909 147.764V118.636C64.0909 117.913 64.3783 117.219 64.8897 116.708C65.4012 116.197 66.0949 115.909 66.8182 115.909H83.1819C83.9052 115.909 84.5989 116.197 85.1103 116.708C85.6218 117.219 85.9091 117.913 85.9091 118.636Z" fill="#287758"/>
<path d="M99.5454 68.182H50.4545C49.9783 68.1767 49.5118 68.0469 49.1014 67.8054C48.6909 67.5639 48.3509 67.2191 48.1151 66.8054C47.8793 66.3917 47.7559 65.9234 47.7572 65.4472C47.7585 64.971 47.8846 64.5035 48.1227 64.0911L72.6681 23.182C72.9112 22.7812 73.2535 22.4499 73.662 22.2199C74.0704 21.9899 74.5312 21.8691 75 21.8691C75.4687 21.8691 75.9295 21.9899 76.3379 22.2199C76.7464 22.4499 77.0887 22.7812 77.3318 23.182L101.877 64.0911C102.115 64.5035 102.241 64.971 102.243 65.4472C102.244 65.9234 102.121 66.3917 101.885 66.8054C101.649 67.2191 101.309 67.5639 100.899 67.8054C100.488 68.0469 100.022 68.1767 99.5454 68.182Z" fill="#DC2626"/>
<path d="M75 51.8182C74.2767 51.8182 73.583 51.5309 73.0715 51.0194C72.56 50.508 72.2727 49.8143 72.2727 49.091V38.1819C72.2727 37.4585 72.56 36.7649 73.0715 36.2534C73.583 35.7419 74.2767 35.4546 75 35.4546C75.7233 35.4546 76.417 35.7419 76.9285 36.2534C77.4399 36.7649 77.7273 37.4585 77.7273 38.1819V49.091C77.7273 49.8143 77.4399 50.508 76.9285 51.0194C76.417 51.5309 75.7233 51.8182 75 51.8182Z" fill="white"/>
<path d="M75 62.7275C76.5062 62.7275 77.7273 61.5065 77.7273 60.0002C77.7273 58.494 76.5062 57.2729 75 57.2729C73.4937 57.2729 72.2727 58.494 72.2727 60.0002C72.2727 61.5065 73.4937 62.7275 75 62.7275Z" fill="white"/>
<path d="M36.8182 103.636H24.5455C23.8222 103.636 23.1285 103.349 22.617 102.838C22.1056 102.326 21.8182 101.632 21.8182 100.909V88.6365C21.8182 87.9131 22.1056 87.2194 22.617 86.708C23.1285 86.1965 23.8222 85.9092 24.5455 85.9092C25.2688 85.9092 25.9625 86.1965 26.474 86.708C26.9854 87.2194 27.2728 87.9131 27.2728 88.6365V98.1819H36.8182C37.5416 98.1819 38.2352 98.4692 38.7467 98.9807C39.2582 99.4922 39.5455 100.186 39.5455 100.909C39.5455 101.632 39.2582 102.326 38.7467 102.838C38.2352 103.349 37.5416 103.636 36.8182 103.636ZM113.182 103.636H125.455C126.178 103.636 126.872 103.349 127.383 102.838C127.895 102.326 128.182 101.632 128.182 100.909V88.6365C128.182 87.9131 127.895 87.2194 127.383 86.708C126.872 86.1965 126.178 85.9092 125.455 85.9092C124.731 85.9092 124.038 86.1965 123.526 86.708C123.015 87.2194 122.727 87.9131 122.727 88.6365V98.1819H113.182C112.459 98.1819 111.765 98.4692 111.253 98.9807C110.742 99.4922 110.455 100.186 110.455 100.909C110.455 101.632 110.742 102.326 111.253 102.838C111.765 103.349 112.459 103.636 113.182 103.636Z" fill="#BFEAD9"/>
</svg>
