<svg width="20" height="20" viewBox="0 0 20 20" fill="none" xmlns="http://www.w3.org/2000/svg">
<path d="M17.4238 6.82353C16.0911 7.64706 15.2679 9.05882 15.2679 10.6275C15.2679 12.3922 16.3263 14 17.9333 14.6667C17.6198 15.6863 17.1494 16.6275 16.5614 17.4902C15.6991 18.7059 14.7976 19.9608 13.4649 19.9608C12.1322 19.9608 11.7402 19.1765 10.1724 19.1765C8.64369 19.1765 8.09493 20 6.84063 20C5.58634 20 4.72401 18.8627 3.74409 17.451C2.45059 15.4902 1.70585 13.2157 1.66666 10.8235C1.66666 6.94118 4.17525 4.86274 6.68385 4.86274C8.01654 4.86274 9.11405 5.72549 9.93718 5.72549C10.7211 5.72549 11.9754 4.82353 13.4649 4.82353C15.0328 4.78431 16.5222 5.52941 17.4238 6.82353ZM12.7593 3.17647C13.4257 2.39216 13.7785 1.41176 13.8177 0.392157C13.8177 0.27451 13.8177 0.117647 13.7785 0C12.6418 0.117647 11.5834 0.666667 10.8387 1.52941C10.1724 2.27451 9.78039 3.21569 9.7412 4.23529C9.7412 4.35294 9.7412 4.47059 9.78039 4.58824C9.85879 4.58824 9.97638 4.62745 10.0548 4.62745C11.1131 4.54902 12.093 4 12.7593 3.17647Z" fill="#050505"/>
</svg>
